# xmcd
#
# Track frame offsets: 
#        150
#        13706
#        27784
#        42976
#        59834
#        77989
#        100999
#        123322
#        136157
#        151971
#        173744
#        192939
#
# Disc length: 2768 seconds
#
# Revision: 5
# Processed by: cddbd v1.5.2PL0 Copyright (c) Steve Scherf et al.
# Submitted via: ExactAudioCopy v0.99pb5
#
DISCID=9c0ace0c
DTITLE=Clementine - Animentine - Bossa Du Anime -
DYEAR=2010
DGENRE=Anime
TTITLE0=????????
TTITLE1=?????????
TTITLE2=???????
TTITLE3=?????????
TTITLE4=????????
TTITLE5=????????
TTITLE6=???????????
TTITLE7=??????????
TTITLE8=????????
TTITLE9=????????????
TTITLE10=???
TTITLE11=CAT'S EYE
EXTD=YEAR: 2010
EXTT0=
EXTT1=
EXTT2=
EXTT3=
EXTT4=
EXTT5=
EXTT6=
EXTT7=
EXTT8=
EXTT9=
EXTT10=
EXTT11=
PLAYORDER=
